<?xml version="1.0" encoding="UTF-8"?>
<!DOCTYPE svg PUBLIC "-//W3C//DTD SVG 1.1//EN" "http://www.w3.org/Graphics/SVG/1.1/DTD/svg11.dtd">
<svg version="1.2" width="100.3mm" height="100.3mm" viewBox="0 0 10030 10030" preserveAspectRatio="xMidYMid" fill-rule="evenodd" stroke-width="28.222" stroke-linejoin="round" xmlns="http://www.w3.org/2000/svg" xmlns:ooo="http://xml.openoffice.org/svg/export" xmlns:xlink="http://www.w3.org/1999/xlink" xmlns:presentation="http://sun.com/xmlns/staroffice/presentation" xmlns:smil="http://www.w3.org/2001/SMIL20/" xmlns:anim="urn:oasis:names:tc:opendocument:xmlns:animation:1.0" xml:space="preserve">
 <defs class="ClipPathGroup">
  <clipPath id="presentation_clip_path" clipPathUnits="userSpaceOnUse">
   <rect x="0" y="0" width="10030" height="10030"/>
  </clipPath>
  <clipPath id="presentation_clip_path_shrink" clipPathUnits="userSpaceOnUse">
   <rect x="10" y="10" width="10010" height="10010"/>
  </clipPath>
 </defs>
 <defs class="TextShapeIndex">
  <g ooo:slide="id1" ooo:id-list="id3 id4 id5 id6 id7 id8 id9"/>
 </defs>
 <defs class="EmbeddedBulletChars">
  <g id="bullet-char-template-57356" transform="scale(0.00048828125,-0.00048828125)">
   <path d="M 580,1141 L 1163,571 580,0 -4,571 580,1141 Z"/>
  </g>
  <g id="bullet-char-template-57354" transform="scale(0.00048828125,-0.00048828125)">
   <path d="M 8,1128 L 1137,1128 1137,0 8,0 8,1128 Z"/>
  </g>
  <g id="bullet-char-template-10146" transform="scale(0.00048828125,-0.00048828125)">
   <path d="M 174,0 L 602,739 174,1481 1456,739 174,0 Z M 1358,739 L 309,1346 659,739 1358,739 Z"/>
  </g>
  <g id="bullet-char-template-10132" transform="scale(0.00048828125,-0.00048828125)">
   <path d="M 2015,739 L 1276,0 717,0 1260,543 174,543 174,936 1260,936 717,1481 1274,1481 2015,739 Z"/>
  </g>
  <g id="bullet-char-template-10007" transform="scale(0.00048828125,-0.00048828125)">
   <path d="M 0,-2 C -7,14 -16,27 -25,37 L 356,567 C 262,823 215,952 215,954 215,979 228,992 255,992 264,992 276,990 289,987 310,991 331,999 354,1012 L 381,999 492,748 772,1049 836,1024 860,1049 C 881,1039 901,1025 922,1006 886,937 835,863 770,784 769,783 710,716 594,584 L 774,223 C 774,196 753,168 711,139 L 727,119 C 717,90 699,76 672,76 641,76 570,178 457,381 L 164,-76 C 142,-110 111,-127 72,-127 30,-127 9,-110 8,-76 1,-67 -2,-52 -2,-32 -2,-23 -1,-13 0,-2 Z"/>
  </g>
  <g id="bullet-char-template-10004" transform="scale(0.00048828125,-0.00048828125)">
   <path d="M 285,-33 C 182,-33 111,30 74,156 52,228 41,333 41,471 41,549 55,616 82,672 116,743 169,778 240,778 293,778 328,747 346,684 L 369,508 C 377,444 397,411 428,410 L 1163,1116 C 1174,1127 1196,1133 1229,1133 1271,1133 1292,1118 1292,1087 L 1292,965 C 1292,929 1282,901 1262,881 L 442,47 C 390,-6 338,-33 285,-33 Z"/>
  </g>
  <g id="bullet-char-template-9679" transform="scale(0.00048828125,-0.00048828125)">
   <path d="M 813,0 C 632,0 489,54 383,161 276,268 223,411 223,592 223,773 276,916 383,1023 489,1130 632,1184 813,1184 992,1184 1136,1130 1245,1023 1353,916 1407,772 1407,592 1407,412 1353,268 1245,161 1136,54 992,0 813,0 Z"/>
  </g>
  <g id="bullet-char-template-8226" transform="scale(0.00048828125,-0.00048828125)">
   <path d="M 346,457 C 273,457 209,483 155,535 101,586 74,649 74,723 74,796 101,859 155,911 209,963 273,989 346,989 419,989 480,963 531,910 582,859 608,796 608,723 608,648 583,586 532,535 482,483 420,457 346,457 Z"/>
  </g>
  <g id="bullet-char-template-8211" transform="scale(0.00048828125,-0.00048828125)">
   <path d="M -4,459 L 1135,459 1135,606 -4,606 -4,459 Z"/>
  </g>
  <g id="bullet-char-template-61548" transform="scale(0.00048828125,-0.00048828125)">
   <path d="M 173,740 C 173,903 231,1043 346,1159 462,1274 601,1332 765,1332 928,1332 1067,1274 1183,1159 1299,1043 1357,903 1357,740 1357,577 1299,437 1183,322 1067,206 928,148 765,148 601,148 462,206 346,322 231,437 173,577 173,740 Z"/>
  </g>
 </defs>
 <g>
  <g id="id2" class="Master_Slide">
   <g id="bg-id2" class="Background"/>
   <g id="bo-id2" class="BackgroundObjects"/>
  </g>
 </g>
 <g class="SlideGroup">
  <g>
   <g id="container-id1">
    <g id="id1" class="Slide" clip-path="url(#presentation_clip_path)">
     <g class="Page">
      <g class="Group">
       <g class="com.sun.star.drawing.PolyPolygonShape">
        <g id="id3">
         <rect class="BoundingBox" stroke="none" fill="none" x="6959" y="3707" width="2995" height="3818"/>
         <path fill="rgb(0,0,0)" stroke="none" d="M 7352,5830 L 7374,5930 7401,6029 7432,6126 7468,6220 7507,6312 7551,6402 7599,6488 7650,6571 7705,6649 7763,6723 7824,6792 7888,6856 7953,6914 8022,6967 8092,7015 8164,7056 8237,7092 8310,7121 8385,7143 8459,7159 8534,7168 8608,7171 8682,7167 8755,7156 8827,7139 8897,7115 8965,7085 9031,7049 9094,7006 9155,6958 9213,6903 9268,6843 9319,6778 9366,6708 9409,6633 9448,6555 9483,6472 9514,6385 9540,6295 9561,6202 9578,6106 9590,6008 9597,5909 9600,5809 9597,5708 9590,5606 9577,5504 9560,5403 9538,5302 9511,5203 9481,5106 9445,5011 9406,4919 9362,4830 9314,4744 9263,4661 9208,4583 9150,4509 9089,4440 9026,4376 8960,4317 8892,4265 8821,4217 8749,4176 8676,4141 8602,4111 8528,4089 8453,4073 8379,4064 8304,4061 8230,4065 8157,4075 8085,4093 8016,4117 7948,4147 7882,4183 7819,4226 7758,4274 7700,4329 7646,4389 7594,4454 7547,4524 7504,4599 7464,4678 7430,4761 7399,4847 7373,4937 7351,5030 7334,5126 7322,5224 7315,5323 7313,5424 7315,5525 7323,5627 7335,5728 7352,5830 Z"/>
         <path fill="none" stroke="rgb(238,238,238)" stroke-width="706" stroke-linejoin="miter" d="M 7352,5830 L 7374,5930 7401,6029 7432,6126 7468,6220 7507,6312 7551,6402 7599,6488 7650,6571 7705,6649 7763,6723 7824,6792 7888,6856 7953,6914 8022,6967 8092,7015 8164,7056 8237,7092 8310,7121 8385,7143 8459,7159 8534,7168 8608,7171 8682,7167 8755,7156 8827,7139 8897,7115 8965,7085 9031,7049 9094,7006 9155,6958 9213,6903 9268,6843 9319,6778 9366,6708 9409,6633 9448,6555 9483,6472 9514,6385 9540,6295 9561,6202 9578,6106 9590,6008 9597,5909 9600,5809 9597,5708 9590,5606 9577,5504 9560,5403 9538,5302 9511,5203 9481,5106 9445,5011 9406,4919 9362,4830 9314,4744 9263,4661 9208,4583 9150,4509 9089,4440 9026,4376 8960,4317 8892,4265 8821,4217 8749,4176 8676,4141 8602,4111 8528,4089 8453,4073 8379,4064 8304,4061 8230,4065 8157,4075 8085,4093 8016,4117 7948,4147 7882,4183 7819,4226 7758,4274 7700,4329 7646,4389 7594,4454 7547,4524 7504,4599 7464,4678 7430,4761 7399,4847 7373,4937 7351,5030 7334,5126 7322,5224 7315,5323 7313,5424 7315,5525 7323,5627 7335,5728 7352,5830 Z"/>
        </g>
       </g>
       <g class="com.sun.star.drawing.PolyPolygonShape">
        <g id="id4">
         <rect class="BoundingBox" stroke="none" fill="none" x="2428" y="5820" width="2957" height="3847"/>
         <path fill="rgb(0,0,0)" stroke="none" d="M 5030,7718 L 5030,7821 5025,7924 5015,8025 5001,8125 4981,8224 4958,8320 4930,8415 4897,8507 4859,8595 4818,8679 4773,8759 4725,8835 4673,8906 4618,8973 4559,9034 4498,9090 4434,9139 4367,9183 4300,9221 4230,9252 4159,9277 4087,9295 4014,9307 3941,9312 3867,9310 3793,9301 3720,9286 3648,9264 3577,9235 3508,9201 3440,9160 3374,9113 3310,9060 3249,9002 3190,8938 3135,8869 3083,8795 3035,8717 2991,8635 2950,8548 2913,8458 2881,8365 2853,8270 2829,8172 2810,8073 2796,7972 2786,7870 2781,7768 2782,7665 2787,7562 2797,7461 2812,7360 2831,7262 2855,7165 2883,7071 2916,6979 2953,6891 2994,6807 3039,6727 3087,6651 3139,6580 3195,6514 3253,6452 3315,6397 3379,6346 3445,6303 3513,6265 3582,6234 3653,6209 3725,6191 3798,6179 3872,6174 3946,6176 4019,6185 4092,6200 4164,6222 4234,6250 4304,6284 4372,6325 4438,6372 4502,6425 4563,6483 4622,6547 4677,6616 4728,6690 4777,6768 4821,6851 4862,6938 4899,7028 4931,7120 4959,7216 4983,7313 5001,7413 5016,7514 5025,7616 5030,7718 Z"/>
         <path fill="none" stroke="rgb(238,238,238)" stroke-width="706" stroke-linejoin="miter" d="M 5030,7718 L 5030,7821 5025,7924 5015,8025 5001,8125 4981,8224 4958,8320 4930,8415 4897,8507 4859,8595 4818,8679 4773,8759 4725,8835 4673,8906 4618,8973 4559,9034 4498,9090 4434,9139 4367,9183 4300,9221 4230,9252 4159,9277 4087,9295 4014,9307 3941,9312 3867,9310 3793,9301 3720,9286 3648,9264 3577,9235 3508,9201 3440,9160 3374,9113 3310,9060 3249,9002 3190,8938 3135,8869 3083,8795 3035,8717 2991,8635 2950,8548 2913,8458 2881,8365 2853,8270 2829,8172 2810,8073 2796,7972 2786,7870 2781,7768 2782,7665 2787,7562 2797,7461 2812,7360 2831,7262 2855,7165 2883,7071 2916,6979 2953,6891 2994,6807 3039,6727 3087,6651 3139,6580 3195,6514 3253,6452 3315,6397 3379,6346 3445,6303 3513,6265 3582,6234 3653,6209 3725,6191 3798,6179 3872,6174 3946,6176 4019,6185 4092,6200 4164,6222 4234,6250 4304,6284 4372,6325 4438,6372 4502,6425 4563,6483 4622,6547 4677,6616 4728,6690 4777,6768 4821,6851 4862,6938 4899,7028 4931,7120 4959,7216 4983,7313 5001,7413 5016,7514 5025,7616 5030,7718 Z"/>
        </g>
       </g>
       <g class="com.sun.star.drawing.PolyPolygonShape">
        <g id="id5">
         <rect class="BoundingBox" stroke="none" fill="none" x="4972" y="5812" width="2956" height="3846"/>
         <path fill="rgb(0,0,0)" stroke="none" d="M 7573,7710 L 7573,7813 7568,7915 7558,8017 7544,8117 7525,8216 7501,8312 7473,8406 7440,8498 7403,8586 7361,8670 7316,8750 7268,8826 7216,8897 7161,8964 7102,9025 7041,9081 6977,9131 6910,9175 6843,9212 6773,9244 6702,9268 6630,9287 6557,9298 6484,9303 6410,9302 6336,9293 6264,9278 6192,9256 6121,9228 6051,9193 5983,9153 5917,9106 5853,9053 5792,8994 5734,8930 5679,8861 5627,8788 5579,8709 5534,8627 5493,8540 5456,8450 5424,8357 5396,8262 5372,8164 5354,8065 5339,7964 5330,7862 5325,7759 5326,7656 5331,7554 5340,7452 5355,7352 5374,7254 5398,7157 5426,7063 5459,6971 5496,6883 5537,6799 5582,6718 5631,6643 5683,6571 5738,6505 5796,6444 5858,6388 5922,6338 5988,6294 6056,6257 6126,6226 6196,6201 6268,6182 6341,6171 6415,6165 6489,6168 6562,6177 6635,6192 6707,6214 6778,6242 6847,6277 6915,6317 6982,6364 7046,6417 7107,6476 7165,6540 7220,6608 7272,6682 7320,6760 7365,6843 7406,6929 7442,7019 7475,7112 7503,7208 7526,7305 7545,7405 7559,7506 7569,7607 7573,7710 Z"/>
         <path fill="none" stroke="rgb(238,238,238)" stroke-width="706" stroke-linejoin="miter" d="M 7573,7710 L 7573,7813 7568,7915 7558,8017 7544,8117 7525,8216 7501,8312 7473,8406 7440,8498 7403,8586 7361,8670 7316,8750 7268,8826 7216,8897 7161,8964 7102,9025 7041,9081 6977,9131 6910,9175 6843,9212 6773,9244 6702,9268 6630,9287 6557,9298 6484,9303 6410,9302 6336,9293 6264,9278 6192,9256 6121,9228 6051,9193 5983,9153 5917,9106 5853,9053 5792,8994 5734,8930 5679,8861 5627,8788 5579,8709 5534,8627 5493,8540 5456,8450 5424,8357 5396,8262 5372,8164 5354,8065 5339,7964 5330,7862 5325,7759 5326,7656 5331,7554 5340,7452 5355,7352 5374,7254 5398,7157 5426,7063 5459,6971 5496,6883 5537,6799 5582,6718 5631,6643 5683,6571 5738,6505 5796,6444 5858,6388 5922,6338 5988,6294 6056,6257 6126,6226 6196,6201 6268,6182 6341,6171 6415,6165 6489,6168 6562,6177 6635,6192 6707,6214 6778,6242 6847,6277 6915,6317 6982,6364 7046,6417 7107,6476 7165,6540 7220,6608 7272,6682 7320,6760 7365,6843 7406,6929 7442,7019 7475,7112 7503,7208 7526,7305 7545,7405 7559,7506 7569,7607 7573,7710 Z"/>
        </g>
       </g>
       <g class="com.sun.star.drawing.PolyPolygonShape">
        <g id="id6">
         <rect class="BoundingBox" stroke="none" fill="none" x="1821" y="222" width="4405" height="5897"/>
         <path fill="rgb(0,0,0)" stroke="none" d="M 5343,2490 L 5425,2656 5501,2823 5570,2992 5633,3161 5689,3330 5737,3499 5779,3667 5813,3833 5839,3996 5858,4155 5869,4310 5871,4460 5866,4604 5853,4742 5832,4874 5804,4999 5767,5115 5723,5224 5673,5323 5645,5369 5615,5413 5583,5454 5550,5493 5515,5530 5479,5564 5441,5595 5402,5624 5360,5650 5318,5674 5274,5695 5228,5713 5181,5728 5134,5741 5085,5751 5035,5758 4984,5763 4932,5764 4879,5763 4825,5759 4714,5743 4601,5717 4484,5679 4366,5629 4246,5570 4126,5500 4005,5421 3884,5332 3764,5234 3645,5127 3527,5011 3411,4887 3299,4756 3189,4619 3083,4475 2982,4326 2884,4172 2791,4013 2703,3850 2621,3684 2545,3517 2476,3348 2413,3179 2357,3010 2308,2841 2267,2673 2233,2506 2207,2343 2188,2184 2178,2029 2175,1880 2180,1736 2193,1598 2213,1466 2242,1340 2279,1224 2323,1116 2374,1017 2402,971 2431,927 2463,886 2496,847 2531,810 2567,776 2605,745 2645,716 2686,690 2729,666 2773,645 2818,627 2865,611 2913,599 2962,589 3012,581 3063,577 3115,575 3168,576 3222,580 3332,596 3446,623 3562,662 3681,710 3800,770 3921,839 4041,918 4162,1007 4282,1105 4401,1213 4519,1329 4634,1453 4747,1584 4857,1722 4962,1865 5064,2014 5162,2169 5255,2327 5343,2490 Z"/>
         <path fill="none" stroke="rgb(238,238,238)" stroke-width="706" stroke-linejoin="miter" d="M 5343,2490 L 5425,2656 5501,2823 5570,2992 5633,3161 5689,3330 5737,3499 5779,3667 5813,3833 5839,3996 5858,4155 5869,4310 5871,4460 5866,4604 5853,4742 5832,4874 5804,4999 5767,5115 5723,5224 5673,5323 5645,5369 5615,5413 5583,5454 5550,5493 5515,5530 5479,5564 5441,5595 5402,5624 5360,5650 5318,5674 5274,5695 5228,5713 5181,5728 5134,5741 5085,5751 5035,5758 4984,5763 4932,5764 4879,5763 4825,5759 4714,5743 4601,5717 4484,5679 4366,5629 4246,5570 4126,5500 4005,5421 3884,5332 3764,5234 3645,5127 3527,5011 3411,4887 3299,4756 3189,4619 3083,4475 2982,4326 2884,4172 2791,4013 2703,3850 2621,3684 2545,3517 2476,3348 2413,3179 2357,3010 2308,2841 2267,2673 2233,2506 2207,2343 2188,2184 2178,2029 2175,1880 2180,1736 2193,1598 2213,1466 2242,1340 2279,1224 2323,1116 2374,1017 2402,971 2431,927 2463,886 2496,847 2531,810 2567,776 2605,745 2645,716 2686,690 2729,666 2773,645 2818,627 2865,611 2913,599 2962,589 3012,581 3063,577 3115,575 3168,576 3222,580 3332,596 3446,623 3562,662 3681,710 3800,770 3921,839 4041,918 4162,1007 4282,1105 4401,1213 4519,1329 4634,1453 4747,1584 4857,1722 4962,1865 5064,2014 5162,2169 5255,2327 5343,2490 Z"/>
        </g>
       </g>
       <g class="com.sun.star.drawing.PolyPolygonShape">
        <g id="id7">
         <rect class="BoundingBox" stroke="none" fill="none" x="172" y="3850" width="2995" height="3818"/>
         <path fill="rgb(0,0,0)" stroke="none" d="M 2773,5971 L 2751,6072 2724,6171 2693,6268 2657,6363 2618,6455 2574,6545 2526,6631 2475,6713 2420,6792 2362,6865 2301,6934 2237,6998 2172,7057 2103,7110 2033,7157 1961,7198 1888,7234 1815,7263 1740,7285 1666,7301 1591,7311 1517,7313 1443,7310 1370,7299 1298,7281 1228,7257 1160,7227 1094,7191 1031,7148 970,7100 912,7046 857,6986 806,6921 759,6850 716,6775 677,6696 642,6613 611,6527 585,6437 564,6343 547,6248 535,6150 528,6051 525,5951 528,5850 535,5748 548,5646 565,5544 587,5444 614,5345 645,5248 680,5153 719,5061 763,4972 811,4885 862,4803 917,4724 975,4651 1036,4582 1099,4518 1165,4460 1233,4407 1304,4359 1376,4318 1449,4282 1523,4254 1597,4231 1672,4215 1746,4206 1821,4203 1895,4207 1968,4218 2040,4235 2109,4259 2177,4290 2243,4326 2306,4369 2367,4417 2425,4472 2479,4532 2531,4597 2578,4667 2621,4741 2661,4820 2695,4903 2726,4989 2752,5079 2774,5173 2791,5269 2803,5367 2810,5466 2813,5566 2810,5667 2802,5768 2790,5870 2773,5971 Z"/>
         <path fill="none" stroke="rgb(238,238,238)" stroke-width="706" stroke-linejoin="miter" d="M 2773,5971 L 2751,6072 2724,6171 2693,6268 2657,6363 2618,6455 2574,6545 2526,6631 2475,6713 2420,6792 2362,6865 2301,6934 2237,6998 2172,7057 2103,7110 2033,7157 1961,7198 1888,7234 1815,7263 1740,7285 1666,7301 1591,7311 1517,7313 1443,7310 1370,7299 1298,7281 1228,7257 1160,7227 1094,7191 1031,7148 970,7100 912,7046 857,6986 806,6921 759,6850 716,6775 677,6696 642,6613 611,6527 585,6437 564,6343 547,6248 535,6150 528,6051 525,5951 528,5850 535,5748 548,5646 565,5544 587,5444 614,5345 645,5248 680,5153 719,5061 763,4972 811,4885 862,4803 917,4724 975,4651 1036,4582 1099,4518 1165,4460 1233,4407 1304,4359 1376,4318 1449,4282 1523,4254 1597,4231 1672,4215 1746,4206 1821,4203 1895,4207 1968,4218 2040,4235 2109,4259 2177,4290 2243,4326 2306,4369 2367,4417 2425,4472 2479,4532 2531,4597 2578,4667 2621,4741 2661,4820 2695,4903 2726,4989 2752,5079 2774,5173 2791,5269 2803,5367 2810,5466 2813,5566 2810,5667 2802,5768 2790,5870 2773,5971 Z"/>
        </g>
       </g>
       <g class="com.sun.star.drawing.PolyPolygonShape">
        <g id="id8">
         <rect class="BoundingBox" stroke="none" fill="none" x="3892" y="256" width="4405" height="5897"/>
         <path fill="rgb(0,0,0)" stroke="none" d="M 4774,2524 L 4692,2690 4616,2858 4546,3027 4484,3196 4428,3365 4379,3533 4338,3701 4303,3867 4277,4030 4258,4190 4248,4344 4245,4494 4250,4638 4263,4776 4284,4908 4313,5033 4349,5150 4393,5258 4444,5357 4472,5403 4502,5447 4533,5489 4566,5528 4601,5564 4637,5598 4675,5630 4715,5659 4756,5685 4799,5709 4843,5730 4888,5748 4935,5763 4983,5776 5032,5785 5082,5793 5133,5797 5185,5799 5238,5798 5292,5794 5402,5778 5516,5751 5632,5713 5751,5664 5870,5605 5991,5535 6111,5456 6232,5367 6352,5268 6471,5161 6589,5045 6705,4921 6818,4790 6927,4653 7033,4509 7135,4360 7232,4206 7325,4047 7413,3884 7495,3718 7571,3551 7641,3382 7703,3213 7759,3044 7808,2875 7850,2707 7884,2541 7910,2377 7929,2218 7939,2064 7942,1914 7937,1770 7924,1632 7904,1500 7875,1376 7838,1259 7794,1151 7743,1052 7715,1005 7685,962 7654,920 7621,882 7586,845 7549,811 7511,780 7471,751 7430,724 7387,701 7344,679 7298,661 7252,646 7204,633 7155,623 7105,616 7054,611 7002,609 6949,610 6895,614 6785,630 6671,657 6555,696 6436,745 6317,804 6196,873 6076,953 5955,1042 5835,1140 5716,1247 5598,1363 5482,1487 5369,1618 5260,1756 5154,1899 5052,2049 4955,2203 4862,2362 4774,2524 Z"/>
         <path fill="none" stroke="rgb(238,238,238)" stroke-width="706" stroke-linejoin="miter" d="M 4774,2524 L 4692,2690 4616,2858 4546,3027 4484,3196 4428,3365 4379,3533 4338,3701 4303,3867 4277,4030 4258,4190 4248,4344 4245,4494 4250,4638 4263,4776 4284,4908 4313,5033 4349,5150 4393,5258 4444,5357 4472,5403 4502,5447 4533,5489 4566,5528 4601,5564 4637,5598 4675,5630 4715,5659 4756,5685 4799,5709 4843,5730 4888,5748 4935,5763 4983,5776 5032,5785 5082,5793 5133,5797 5185,5799 5238,5798 5292,5794 5402,5778 5516,5751 5632,5713 5751,5664 5870,5605 5991,5535 6111,5456 6232,5367 6352,5268 6471,5161 6589,5045 6705,4921 6818,4790 6927,4653 7033,4509 7135,4360 7232,4206 7325,4047 7413,3884 7495,3718 7571,3551 7641,3382 7703,3213 7759,3044 7808,2875 7850,2707 7884,2541 7910,2377 7929,2218 7939,2064 7942,1914 7937,1770 7924,1632 7904,1500 7875,1376 7838,1259 7794,1151 7743,1052 7715,1005 7685,962 7654,920 7621,882 7586,845 7549,811 7511,780 7471,751 7430,724 7387,701 7344,679 7298,661 7252,646 7204,633 7155,623 7105,616 7054,611 7002,609 6949,610 6895,614 6785,630 6671,657 6555,696 6436,745 6317,804 6196,873 6076,953 5955,1042 5835,1140 5716,1247 5598,1363 5482,1487 5369,1618 5260,1756 5154,1899 5052,2049 4955,2203 4862,2362 4774,2524 Z"/>
        </g>
       </g>
       <g class="com.sun.star.drawing.PolyPolygonShape">
        <g id="id9">
         <rect class="BoundingBox" stroke="none" fill="none" x="3477" y="1988" width="3194" height="3474"/>
         <path fill="rgb(0,0,0)" stroke="none" d="M 6669,3689 L 6668,3803 6660,3917 6646,4029 6624,4140 6596,4249 6562,4356 6521,4461 6474,4562 6421,4660 6362,4754 6298,4843 6228,4927 6154,5006 6075,5080 5991,5148 5903,5210 5812,5266 5718,5315 5621,5357 5522,5392 5422,5420 5319,5441 5215,5454 5111,5461 5006,5459 4902,5451 4799,5434 4697,5411 4596,5380 4498,5342 4401,5298 4308,5246 4218,5187 4131,5123 4049,5052 3972,4977 3899,4896 3831,4809 3768,4719 3710,4623 3659,4524 3614,4421 3575,4316 3542,4208 3516,4098 3497,3987 3484,3874 3478,3761 3479,3646 3487,3533 3502,3421 3523,3310 3551,3201 3586,3094 3626,2989 3673,2887 3727,2790 3786,2696 3850,2607 3920,2523 3994,2443 4073,2369 4157,2301 4244,2239 4336,2184 4430,2135 4526,2092 4625,2057 4726,2029 4828,2008 4932,1995 5036,1989 5141,1991 5245,2000 5348,2016 5450,2040 5551,2071 5649,2108 5746,2153 5839,2205 5929,2263 6016,2327 6098,2398 6176,2473 6249,2554 6317,2640 6380,2731 6438,2826 6489,2926 6534,3028 6573,3134 6605,3242 6631,3351 6650,3463 6663,3575 6669,3689 Z"/>
        </g>
       </g>
      </g>
     </g>
    </g>
   </g>
  </g>
 </g>
</svg>